<?xml version="1.0" encoding="UTF-8"?>
<!DOCTYPE svg PUBLIC "-//W3C//DTD SVG 1.1//EN" "http://www.w3.org/Graphics/SVG/1.1/DTD/svg11.dtd">
<!-- Creator: CorelDRAW -->
<svg xmlns="http://www.w3.org/2000/svg" xml:space="preserve" width="3.37688in" height="5.96198in" version="1.1" style="shape-rendering:geometricPrecision; text-rendering:geometricPrecision; image-rendering:optimizeQuality; fill-rule:evenodd; clip-rule:evenodd"
viewBox="0 0 2728.72 4817.63"
 xmlns:xlink="http://www.w3.org/1999/xlink"
 xmlns:xodm="http://www.corel.com/coreldraw/odm/2003">
 <defs>
  <style type="text/css">
   <![CDATA[
    .fil1 {fill:#977E2E}
    .fil0 {fill:#9B823E}
   ]]>
  </style>
 </defs>
 <g id="Layer_x0020_1">
  <metadata id="CorelCorpID_0Corel-Layer"/>
  <path class="fil0" d="M2624.04 3485.8l0 0c-19.07,0 -34.33,15.61 -34.33,34.33 -0.34,677.7 -551.8,1228.8 -1229.5,1228.8l-1.04 0c-677.7,-0.69 -1229.14,-552.49 -1228.45,-1230.53 0.69,-793.54 505.67,-1394.93 1051.58,-1926.62l0 0 43.01 -41.62 69.71 -19.07 69.02 120.7 69.02 -120.7 134.57 36.77 -36.42 -134.91 120.7 -69.02 -120.7 -69.02 36.42 -134.22 -134.57 36.77 -69.02 -121.04 -69.02 121.04 -134.22 -36.77 36.42 134.22 -120.7 69.02 120.7 69.02 -17.69 65.89 -45.09 44.05 0 0c-556.66,542.08 -1071.69,1156.67 -1072.38,1975.52 -0.69,715.85 581.28,1298.52 1297.13,1299.21l1.04 0c715.51,0 1297.82,-581.63 1298.18,-1297.13 0,-19.07 -15.26,-34.69 -34.33,-34.69l0 0 -0.03 -0.01z"/>
  <path class="fil0" d="M1478.81 1077.8c20.12,8.66 41.62,6.93 59.66,-5.55 154.68,-105.79 283.01,-254.92 364.16,-439.43 80.81,-184.51 103.7,-379.42 77,-564.98 -3.12,-21.5 -15.95,-38.84 -36.07,-47.52 -19.77,-8.67 -41.62,-6.94 -59.66,5.55 -154.68,105.43 -283.01,254.22 -363.82,439.08 -81.15,183.82 -104.06,379.42 -77.34,564.99 3.12,21.5 16.31,38.84 36.07,47.52l0 0.34 0 0.02z"/>
  <path class="fil0" d="M1249.22 1650.75c-19.77,-8.66 -41.28,-6.94 -59.66,5.55 -154.68,105.79 -282.67,254.56 -363.47,439.08 -81.51,184.16 -104.4,379.08 -77.69,565.33 3.47,21.5 16.31,38.84 36.42,47.52 19.77,8.67 41.28,6.59 59.3,-5.55 155.03,-105.79 283.01,-255.26 364.16,-439.43 81.16,-184.51 104.06,-379.42 77.34,-564.98 -3.47,-21.85 -16.31,-38.84 -36.42,-47.52l0 0 0.01 0.01z"/>
  <path class="fil0" d="M1183.67 1072.59c17.34,13.17 38.84,15.95 58.96,7.98 20.46,-7.98 34.33,-24.28 38.14,-46.13 34.69,-184.16 19.77,-380.12 -53.06,-568.1 -73.18,-187.63 -194.92,-341.61 -345.09,-454 -17.34,-12.83 -38.84,-15.95 -58.96,-7.98 -20.46,7.98 -34.33,24.63 -38.15,46.13 -34.68,184.16 -20.12,380.12 53.42,567.75 72.49,187.63 194.23,341.61 344.75,454l0 0.34 -0.01 0.01z"/>
  <path class="fil0" d="M1485.41 1647.97c-20.12,7.98 -33.99,24.63 -38.15,46.13 -34.68,184.16 -20.12,380.12 53.42,567.75 72.83,187.64 194.57,341.97 344.75,454.34 17.68,12.83 38.84,16.31 59.3,8.33 20.12,-8.33 33.99,-24.63 38.15,-46.47 34.68,-183.82 19.77,-380.12 -53.06,-567.75 -73.52,-187.63 -194.92,-341.97 -345.09,-454 -17.69,-13.17 -38.84,-16.31 -59.3,-8.32l0 0 -0.01 0z"/>
  <path class="fil0" d="M465.05 1208.2c184.16,81.51 379.08,104.4 565.32,77.69 21.5,-3.47 38.84,-16.31 47.52,-36.07 8.66,-20.12 6.59,-41.62 -5.55,-59.66 -105.79,-154.68 -255.26,-283.01 -439.43,-364.16 -184.51,-80.81 -379.42,-103.7 -564.99,-77 -21.85,3.12 -38.84,15.95 -47.52,36.07 -8.67,19.77 -6.94,41.62 5.55,59.66 105.78,154.68 254.56,282.67 439.08,363.47l0 0 0.01 0z"/>
  <path class="fil0" d="M2263.34 1519.99c-184.51,-80.81 -379.77,-103.7 -565.32,-77 -21.5,3.47 -38.5,16.31 -47.52,36.07 -8.32,20.12 -6.59,41.62 5.9,59.66 105.43,154.68 254.56,283.01 439.08,363.82 184.16,81.15 379.08,104.06 564.99,77.34 21.85,-3.12 38.84,-15.95 47.52,-36.07 8.67,-19.77 6.94,-41.28 -5.55,-59.66 -105.79,-154.68 -254.92,-282.67 -439.08,-364.16l0 0 -0.01 0z"/>
  <path class="fil0" d="M618.34 1889.72c187.63,-72.49 341.61,-194.23 454.34,-344.75 12.83,-17.69 15.95,-38.84 7.98,-58.96 -7.98,-20.46 -24.63,-34.33 -46.13,-38.5 -184.16,-34.33 -380.47,-19.43 -568.1,53.06 -187.63,73.52 -341.61,195.26 -454,345.45 -13.17,17.34 -15.95,38.84 -7.98,58.96 7.98,20.12 24.28,34.33 46.13,38.15 184.16,34.68 379.77,20.12 567.75,-53.42l0 0 0.01 0.01z"/>
  <path class="fil0" d="M2724.27 823.91c-7.99,-20.12 -24.28,-34.33 -46.13,-38.15 -184.16,-34.68 -380.12,-19.77 -567.75,53.06 -187.97,73.18 -341.97,194.92 -454.34,345.09 -12.83,17.69 -15.95,38.84 -7.98,58.96 7.98,20.46 24.63,34.33 46.13,38.5 184.16,34.68 380.12,19.77 567.75,-53.42 187.64,-72.83 341.62,-194.57 454.34,-345.09 13.17,-17.34 15.95,-38.84 7.99,-58.96z"/>
  <path class="fil1" d="M565.28 3547.19l192.84 -167.87 84.27 0 -155.38 136.65 170.99 237.92 -74.57 0 -141.51 -195.96 -76.64 64.5 0 131.45 -61.39 0 0 -374.57 61.39 0 0 167.87zm467.53 216.08c-53.42,0 -100.58,-17.34 -138.39,-55.49 -38.14,-38.5 -54.79,-86.36 -54.79,-140.12 0,-53.76 16.65,-101.61 55.15,-140.12 37.8,-38.14 84.63,-55.49 138.03,-55.49 53.76,0 100.92,17.34 139.08,55.49 38.14,38.5 55.15,86.36 55.15,140.12 0,53.76 -16.99,101.61 -55.15,140.12 -38.14,38.14 -85.32,55.49 -139.08,55.49zm563.59 -221.28c14.22,9.71 26.36,21.85 35.38,36.77 11.1,18.04 15.95,38.14 15.95,59.3 0,32.95 -10.41,62.43 -35.38,84.63 -26.01,23.24 -59.66,31.21 -93.65,31.21l-230.98 0 0 -373.88 219.54 0c29.48,0 62.08,5.2 85.32,24.63 22.19,18.38 29.82,44.74 29.82,72.83 0,14.56 -2.42,28.78 -9.02,41.96 -4.51,8.67 -10.05,16.31 -16.99,22.55zm124.16 211.91l0 -375.96 62.08 0 0 375.96 -62.08 0zm-10.07 -460.58c0,-11.44 4.17,-21.16 12.14,-29.14 7.98,-7.63 17.68,-11.8 28.78,-11.8 11.44,0 20.82,3.81 28.78,11.8 7.99,7.98 11.8,18.03 11.8,29.14 0,11.1 -3.81,20.82 -11.8,28.79 -7.98,7.63 -17.68,11.44 -28.78,11.44 -11.1,0 -20.82,-4.17 -28.78,-11.8 -7.63,-7.98 -12.14,-17.34 -12.14,-28.44l0 0 0 0.01zm403.71 364.5l-186.6 0 -47.16 96.07 -66.59 0 183.47 -373.88 47.52 0 185.21 373.88 -67.29 0 -48.55 -96.07zm-1081.4 46.48c36.77,0 68.32,-11.8 93.65,-38.5 26.01,-27.06 37.11,-60.69 37.11,-98.16 0,-37.46 -11.1,-71.1 -37.11,-98.5 -25.31,-26.36 -56.88,-38.14 -93.65,-38.14 -36.42,0 -67.98,11.8 -93.29,38.5 -26.01,27.05 -37.11,60.69 -37.11,98.15 0,37.46 10.75,71.1 37.11,98.16 25.31,26.7 56.88,38.5 93.29,38.5l0 0 0 -0.01zm316.3 -8.68l178.27 0c15.61,0 30.52,-3.81 41.96,-15.26 11.1,-11.44 14.92,-27.05 14.92,-43.01 0,-15.95 -3.81,-31.21 -14.92,-42.66 -11.44,-11.8 -26.36,-15.61 -41.96,-15.61l-178.27 0 0 116.53zm0 -174.8l161.96 0c12.83,0 27.4,-2.08 37.47,-10.75 9.02,-7.63 11.8,-18.38 11.8,-30.17 0,-11.44 -2.08,-23.24 -11.44,-31.21 -9.71,-8.66 -25.31,-10.41 -37.8,-10.41l-161.97 0 0 82.54 0 0 -0.01 0zm607.28 78.39l129.71 0 -65.2 -130.4 -64.5 130.4z"/>
 </g>
</svg>
