<svg xmlns="http://www.w3.org/2000/svg" version="1.1" xmlns:xlink="http://www.w3.org/1999/xlink" width="1000" height="1000"><g clip-path="url(#SvgjsClipPath1073)"><rect width="1000" height="1000" fill="#ffffff"></rect><g transform="matrix(0.9765625,0,0,0.9765625,0,0)"><svg xmlns="http://www.w3.org/2000/svg" version="1.1" xmlns:xlink="http://www.w3.org/1999/xlink" width="1024" height="1024"><svg xmlns="http://www.w3.org/2000/svg" viewBox="0 0 1024 1024" width="1024" height="1024">
  <defs>
    <linearGradient gradientUnits="userSpaceOnUse" x1="474.213" y1="445.675" x2="474.213" y2="660.002" id="gradient-1" gradientTransform="matrix(0.853463, -0.521153, 0.55168, 0.903456, -186.726499, 275.385022)">
      <stop offset="0" style="stop-color: rgb(32, 85, 129);"></stop>
      <stop offset="1" style="stop-color: rgb(34, 85, 132);"></stop>
    </linearGradient>
    <linearGradient gradientUnits="userSpaceOnUse" x1="468.214" y1="565.515" x2="468.214" y2="796.477" id="gradient-0" spreadMethod="pad" gradientTransform="matrix(0.4567, -0.889621, 1.32466, 0.680034, -550.090276, 576.334305)">
      <stop offset="0" style="stop-color: rgb(63, 108, 150);"></stop>
      <stop offset="1" style="stop-color: rgb(44, 89, 130);"></stop>
    </linearGradient>
  <clipPath id="SvgjsClipPath1073"><rect width="1000" height="1000" x="0" y="0" rx="500" ry="500"></rect></clipPath></defs>
  <g fill="None" fill-opacity="0.0" stroke="#FEFEFE" stroke-opacity="1.00" stroke-width="0.3"></g>
  <g fill="None" fill-opacity="0.0" stroke="#778591" stroke-opacity="1.00" stroke-width="0.3">
    <path d=" M 490.00 188.00 C 497.67 188.00 505.33 188.00 513.00 188.00 C 505.83 187.31 497.24 187.30 490.00 188.00 Z"></path>
  </g>
  <g fill="None" fill-opacity="0.0" stroke="#0C2943" stroke-opacity="1.00" stroke-width="0.3">
    <path d=" M 513.00 188.00 C 505.33 188.00 497.67 188.00 490.00 188.00 C 329.93 188.84 186.23 339.83 205.00 502.00 C 224.93 443.58 277.45 393.66 340.00 387.00 C 345.39 376.75 352.22 367.08 360.25 358.25 C 368.27 349.42 376.42 342.10 385.77 334.77 C 395.12 327.44 404.02 321.79 414.92 315.92 C 425.83 310.06 437.30 305.51 449.78 301.78 C 462.26 298.05 477.15 294.82 491.00 294.00 C 504.85 293.18 523.27 294.55 536.33 296.67 C 549.39 298.79 562.57 303.58 574.31 307.69 C 586.04 311.81 596.41 319.44 606.77 324.23 C 617.13 329.02 625.25 343.64 635.77 338.77 C 646.29 333.90 655.85 325.61 666.25 320.25 C 676.66 314.90 686.47 307.35 696.77 301.77 C 707.07 296.20 716.45 288.82 727.00 284.00 C 672.49 224.69 593.78 188.00 513.00 188.00 Z"></path>
  </g>
  <g fill="None" fill-opacity="0.0" stroke="#0C2943" stroke-opacity="1.00" stroke-width="0.3"></g>
  <g fill="None" fill-opacity="0.0" stroke="#6BA8D6" stroke-opacity="1.00" stroke-width="0.3">
    <path d="M 218 571 C 219.62 560.63 237.07 559.58 246 558 C 254.93 556.42 271.04 560.82 279.23 565.77 C 287.42 570.72 296.23 575.61 303.25 582.75 C 310.26 589.89 316.89 596.34 322.75 604.25 C 328.62 612.15 334.38 620.76 340.25 628.75 C 346.12 636.74 351.31 644.53 357.77 652.23 C 364.23 659.93 371.38 665.63 379.08 671.92 C 386.79 678.21 394.34 683.54 403.23 688.77 C 412.12 694 422.05 698.13 432.02 701.98 C 442 705.82 452.18 709.26 463.02 711.98 C 473.87 714.69 485.32 717.74 497 719 C 508.69 720.26 523.77 721.73 536 721 C 548.23 720.27 562.25 718.79 573.67 716.67 C 585.09 714.55 595.35 711.22 605.68 707.68 C 616.01 704.14 624.94 699.98 634.23 695.23 C 643.51 690.48 651.55 685.78 659.75 679.75 C 667.94 673.71 675.46 667.98 682 660 C 696 673.17 709.88 687.04 723 701 C 695.32 670.81 662.16 637.67 631 609 C 623.94 618.62 612.06 622.47 603 629 C 595.13 634.68 587.78 638.15 578.77 642.77 C 569.76 647.39 560.36 650.31 550.33 653.33 C 540.3 656.35 528.95 657.73 518 659 C 507.04 660.27 491.92 660.4 481 659 C 470.08 657.6 459 655.77 448.93 653.07 C 438.86 650.37 429.22 647.17 420.31 642.69 C 411.39 638.22 403.94 634.49 396.3 628.7 C 388.67 622.9 382.22 617.54 375.75 610.25 C 369.28 602.96 364.66 596.81 359.75 588.25 C 354.83 579.7 350.9 570.66 348.22 560.78 C 345.55 550.89 344.81 537.29 345.93 526.93 C 347.04 516.57 349.17 504.89 353.92 495.92 C 358.68 486.96 362.5 480.65 369.25 473.25 C 376 465.84 382.74 461.16 391.23 456.23 C 399.72 451.3 409.94 448.2 420 447 C 430.07 445.81 446.7 444.9 456.02 447.98 C 465.35 451.05 476.19 452.46 483.08 458.92 C 489.97 465.37 484.7 445.78 471.23 433.77 C 457.76 421.76 439.04 413.91 421.01 407.99 C 402.98 402.07 371.37 401.42 352.07 405.07 C 332.78 408.73 314.19 416.16 297.7 425.7 C 281.21 435.23 268.8 445.27 255.75 459.75 C 242.71 474.24 233.65 487.85 225.98 505.98 C 218.3 524.1 214.37 550.74 218 571 Z"></path>
  </g>
  <g fill="None" fill-opacity="0.0" stroke="#24669F" stroke-opacity="1.00" stroke-width="0.3"></g>
  <g fill="None" fill-opacity="0.0" stroke="#24669F" stroke-opacity="1.00" stroke-width="0.3">
    <path d=" M 218.00 571.00 C 219.90 581.61 222.39 593.96 226.22 603.78 C 230.06 613.59 234.21 622.94 239.08 631.92 C 243.96 640.89 249.14 648.13 254.70 656.30 C 260.25 664.48 266.19 671.96 272.75 679.25 C 279.31 686.54 285.00 693.02 292.25 699.75 C 299.50 706.49 306.52 712.72 314.25 718.75 C 321.97 724.78 329.02 730.22 337.25 735.75 C 345.49 741.27 353.94 746.23 362.77 751.23 C 371.60 756.23 380.18 759.95 389.78 764.22 C 399.37 768.50 409.46 771.81 419.93 775.07 C 430.39 778.34 441.42 781.32 452.78 783.22 C 464.14 785.12 475.88 787.07 488.00 788.00 C 500.12 788.93 514.90 788.76 527.00 788.00 C 539.10 787.24 551.70 786.15 562.98 783.98 C 574.25 781.80 585.56 779.14 595.98 775.98 C 606.39 772.81 616.37 770.08 625.78 765.78 C 635.18 761.47 645.27 757.88 653.77 752.77 C 662.27 747.66 671.34 743.39 678.75 737.75 C 686.17 732.12 696.43 726.72 702.25 720.25 C 708.08 713.79 720.68 709.45 723.00 701.00 C 709.88 687.04 696.00 673.17 682.00 660.00 C 675.46 667.98 667.94 673.71 659.75 679.75 C 651.55 685.78 643.51 690.48 634.23 695.23 C 624.94 699.98 616.01 704.14 605.68 707.68 C 595.35 711.22 585.09 714.55 573.67 716.67 C 562.25 718.79 548.23 720.27 536.00 721.00 C 523.77 721.73 508.69 720.26 497.00 719.00 C 485.32 717.74 473.87 714.69 463.02 711.98 C 452.18 709.26 442.00 705.82 432.02 701.98 C 422.05 698.13 412.12 694.00 403.23 688.77 C 394.34 683.54 386.79 678.21 379.08 671.92 C 371.38 665.63 364.23 659.93 357.77 652.23 C 351.31 644.53 346.12 636.74 340.25 628.75 C 334.38 620.76 328.62 612.15 322.75 604.25 C 316.89 596.34 310.26 589.89 303.25 582.75 C 296.23 575.61 287.42 570.72 279.23 565.77 C 271.04 560.82 254.93 556.42 246.00 558.00 C 237.07 559.58 219.62 560.63 218.00 571.00 Z"></path>
  </g>
  <g fill="None" fill-opacity="0.0" stroke="#A0BBD0" stroke-opacity="1.00" stroke-width="0.3">
    <path d=" M 546.00 640.00 C 540.00 640.00 534.00 640.00 528.00 640.00 C 533.60 640.54 540.33 640.55 546.00 640.00 Z"></path>
  </g>
  <g fill="#FEFEFE" fill-opacity="1.00" stroke="None">
    <path d="M 513 188 C 593.78 188 672.49 224.69 727 284 C 716.45 288.82 707.07 296.2 696.77 301.77 C 686.47 307.35 676.65 314.89 666.25 320.25 C 655.85 325.61 636.76 342.703 629.46 342.042 C 622.16 341.381 617.13 329.02 606.77 324.23 C 596.41 319.44 586.04 311.81 574.31 307.69 C 562.57 303.58 549.39 298.79 536.33 296.67 C 523.27 294.55 504.85 293.18 491 294 C 477.15 294.82 462.26 298.05 449.78 301.78 C 437.3 305.51 425.83 310.06 414.92 315.92 C 404.02 321.79 395.12 327.44 385.77 334.77 C 376.42 342.1 368.27 349.42 360.25 358.25 C 352.22 367.08 345.39 376.75 340 387 C 277.45 393.66 224.93 443.58 205 502 C 186.23 339.83 329.93 188.84 490 188 C 497.24 187.3 505.83 187.31 513 188 M 734 318 C 742.05 334.35 753.07 349.4 761 366 C 769.77 362.87 778.89 360.98 788 359 C 799.41 386.47 808.09 415.18 812 445 C 799.224 448.567 778.546 439.911 786 468 C 793.454 496.089 784.19 499.79 785 516 C 796.53 521.02 814.18 524.81 809.07 539.07 C 803.96 553.34 803.56 565.81 798.02 579.02 C 792.49 592.24 788.78 602.25 783 615 C 776.083 615.807 765.144 602.233 758.094 603.008 C 756.491 603.184 755.203 608.696 754.08 610.08 C 748.02 617.56 744.27 627.59 738.08 635.08 C 731.89 642.57 726.45 650.69 720 658 C 696.83 636.33 675.12 612.62 652 591 C 658.26 581.03 665.01 574.08 670.31 563.3 C 675.6 552.53 680.79 543.79 684.78 531.78 C 688.76 519.76 716.03 533.22 716.93 517.93 C 717.82 502.64 720.8 490.19 720 475 C 719.2 459.81 718.796 442.994 715.416 428.714 C 705.576 428.744 696.076 427.474 686.416 426.714 C 680.346 402.884 667.49 385.85 655 365 C 681.76 350.05 707.38 332.87 734 318 M 505 476 C 505.23 477.01 506.44 477.76 506 479 C 475.17 459.13 429.46 466.18 410.08 499.08 C 390.69 531.97 404.26 573.05 430.75 598.25 C 457.25 623.45 491.33 639.17 528 640 C 534 640 540 640 546 640 C 565.32 640 585.82 636.94 603 629 C 612.06 622.47 623.94 618.62 631 609 C 662.16 637.67 695.32 670.81 723 701 C 718.033 708.728 706.6 711.421 701.112 717.974 C 695.624 724.527 685.032 729.844 677.612 735.474 C 670.202 741.114 662.27 747.66 653.77 752.77 C 645.27 757.88 635.18 761.47 625.78 765.78 C 616.37 770.08 606.39 772.81 595.98 775.98 C 585.56 779.14 574.25 781.8 562.98 783.98 C 551.7 786.15 539.1 787.24 527 788 C 514.9 788.76 500.12 788.93 488 788 C 475.88 787.07 464.14 785.12 452.78 783.22 C 441.42 781.32 430.39 778.34 419.93 775.07 C 409.46 771.81 399.37 768.5 389.78 764.22 C 380.18 759.95 371.6 756.23 362.77 751.23 C 353.94 746.23 345.49 741.27 337.25 735.75 C 329.02 730.22 321.97 724.78 314.25 718.75 C 306.52 712.72 299.5 706.49 292.25 699.75 C 285 693.02 279.31 686.54 272.75 679.25 C 266.19 671.96 260.25 664.48 254.7 656.3 C 249.14 648.13 243.96 640.89 239.08 631.92 C 234.21 622.94 230.06 613.59 226.22 603.78 C 222.39 593.96 219.9 581.61 218 571 C 214.37 550.74 218.3 524.1 225.98 505.98 C 233.65 487.85 242.71 474.24 255.75 459.75 C 268.8 445.27 281.21 435.23 297.7 425.7 C 314.19 416.16 332.78 408.73 352.07 405.07 C 371.37 401.42 402.98 402.07 421.01 407.99 C 439.04 413.91 457.76 421.76 471.23 433.77 C 484.7 445.78 501.11 458.59 505 476 Z"></path>
  </g>
  <g fill="#778591" fill-opacity="1.00" stroke="None">
    <path d=" M 490.00 188.00 C 497.67 188.00 505.33 188.00 513.00 188.00 C 505.83 187.31 497.24 187.30 490.00 188.00 Z"></path>
  </g>
  <g fill="#0C2943" fill-opacity="1.00" stroke="None">
    <path d="M 513 188 C 505.33 188 497.67 188 490 188 C 329.93 188.84 186.23 339.83 205 502 C 224.93 443.58 277.45 393.66 340 387 C 345.39 376.75 352.22 367.08 360.25 358.25 C 368.27 349.42 376.42 342.1 385.77 334.77 C 395.12 327.44 404.02 321.79 414.92 315.92 C 425.83 310.06 437.3 305.51 449.78 301.78 C 462.26 298.05 477.15 294.82 491 294 C 504.85 293.18 523.27 294.55 536.33 296.67 C 549.39 298.79 562.57 303.58 574.31 307.69 C 586.04 311.81 595.934 319.018 605.835 324.697 C 614.234 329.515 623.286 338.315 629.149 341.83 C 629.317 341.931 629.539 342.102 629.712 342.015 C 631.546 341.091 635.594 338.93 637.567 337.934 C 648.911 332.204 658.112 324.715 668.512 319.355 C 678.922 314.005 686.47 307.35 696.77 301.77 C 707.07 296.2 716.45 288.82 727 284 C 672.49 224.69 593.78 188 513 188 Z" style="fill: rgb(13, 41, 62);"></path>
  </g>
  <g fill="#0C2943" fill-opacity="1.00" stroke="None">
    <path d="M 734 318 C 707.38 332.87 681.76 350.05 655 365 C 667.49 385.85 680.93 407.17 687 431 C 696.66 431.76 705.186 429.329 715.026 429.299 C 718.406 443.579 719.2 459.81 720 475 C 720.8 490.19 719.346 497.292 716.724 515.567 C 716.15 519.567 716.459 519.843 714.737 521.886 C 714.199 522.524 690.534 518.752 689.571 520.381 C 688.025 522.995 675.6 552.53 670.31 563.3 C 665.01 574.08 658.26 581.03 652 591 C 675.12 612.62 696.83 636.33 720 658 C 726.45 650.69 731.89 642.57 738.08 635.08 C 744.27 627.59 749.792 617.188 754.294 609.759 C 758.147 603.401 753.565 604.05 770.17 611.22 C 774.806 613.222 778.457 615.034 782.041 615.959 C 787.821 603.209 792.621 592.294 798.02 579.02 C 803.413 565.761 807.084 552.85 809.88 538.947 C 811.212 532.323 811.218 523.861 811.055 523.81 C 797.873 519.645 785 516 785 516 C 786.888 500.62 788.219 483.251 786.83 465.821 C 786.593 462.85 786.005 458.904 785.94 457.402 C 785.68 451.447 784.776 452.652 786.167 452.172 C 794.921 449.147 803.677 448.69 812 445 C 808.09 415.18 799.41 386.47 788 359 C 778.943 361.139 769.998 363.554 761 366 C 753.07 349.4 742.05 334.35 734 318 Z" style="fill: rgb(13, 41, 62);"></path>
  </g>
  <g fill="#6BA8D6" fill-opacity="1.00" stroke="None">
    <path d=" M 218.00 571.00 C 219.62 560.63 237.07 559.58 246.00 558.00 C 254.93 556.42 271.04 560.82 279.23 565.77 C 287.42 570.72 296.23 575.61 303.25 582.75 C 310.26 589.89 316.89 596.34 322.75 604.25 C 328.62 612.15 334.38 620.76 340.25 628.75 C 346.12 636.74 351.31 644.53 357.77 652.23 C 364.23 659.93 371.38 665.63 379.08 671.92 C 386.79 678.21 394.34 683.54 403.23 688.77 C 412.12 694.00 422.05 698.13 432.02 701.98 C 442.00 705.82 452.18 709.26 463.02 711.98 C 473.87 714.69 485.32 717.74 497.00 719.00 C 508.69 720.26 523.77 721.73 536.00 721.00 C 548.23 720.27 562.25 718.79 573.67 716.67 C 585.09 714.55 595.35 711.22 605.68 707.68 C 616.01 704.14 624.94 699.98 634.23 695.23 C 643.51 690.48 651.55 685.78 659.75 679.75 C 667.94 673.71 675.46 667.98 682.00 660.00 C 696.00 673.17 709.88 687.04 723.00 701.00 C 695.32 670.81 662.16 637.67 631.00 609.00 C 623.94 618.62 612.06 622.47 603.00 629.00 C 595.13 634.68 587.78 638.15 578.77 642.77 C 569.76 647.39 560.36 650.31 550.33 653.33 C 540.30 656.35 528.95 657.73 518.00 659.00 C 507.04 660.27 491.92 660.40 481.00 659.00 C 470.08 657.60 459.00 655.77 448.93 653.07 C 438.86 650.37 429.22 647.17 420.31 642.69 C 411.39 638.22 403.94 634.49 396.30 628.70 C 388.67 622.90 382.22 617.54 375.75 610.25 C 369.28 602.96 364.66 596.81 359.75 588.25 C 354.83 579.70 350.90 570.66 348.22 560.78 C 345.55 550.89 344.81 537.29 345.93 526.93 C 347.04 516.57 349.17 504.89 353.92 495.92 C 358.68 486.96 362.50 480.65 369.25 473.25 C 376.00 465.84 382.74 461.16 391.23 456.23 C 399.72 451.30 409.94 448.20 420.00 447.00 C 430.07 445.81 446.70 444.90 456.02 447.98 C 465.35 451.05 476.19 452.46 483.08 458.92 C 489.97 465.37 500.01 468.61 505.00 476.00 C 501.11 458.59 484.70 445.78 471.23 433.77 C 457.76 421.76 439.04 413.91 421.01 407.99 C 402.98 402.07 371.37 401.42 352.07 405.07 C 332.78 408.73 314.19 416.16 297.70 425.70 C 281.21 435.23 268.80 445.27 255.75 459.75 C 242.71 474.24 233.65 487.85 225.98 505.98 C 218.30 524.10 214.37 550.74 218.00 571.00 Z"></path>
  </g>
  <g fill="#24669F" fill-opacity="1.00" stroke="None">
    <path d="M 603 629 C 585.82 636.94 565.32 640 546 640 C 540.33 640.55 533.6 640.54 528 640 C 491.33 639.17 457.25 623.45 430.75 598.25 C 404.26 573.05 390.69 531.97 410.08 499.08 C 429.46 466.18 474.889 458.929 505.719 478.799 C 504.988 475.992 505.23 477.01 505 476 C 500.01 468.61 491.007 463.125 483.253 458.229 C 475.639 453.421 466.056 450.646 456.726 447.576 C 447.406 444.496 430.07 445.81 420 447 C 409.94 448.2 399.72 451.3 391.23 456.23 C 382.74 461.16 376 465.84 369.25 473.25 C 362.5 480.65 358.68 486.96 353.92 495.92 C 349.17 504.89 347.04 516.57 345.93 526.93 C 344.81 537.29 345.55 550.89 348.22 560.78 C 350.9 570.66 354.83 579.7 359.75 588.25 C 364.66 596.81 369.28 602.96 375.75 610.25 C 382.22 617.54 388.67 622.9 396.3 628.7 C 403.94 634.49 411.39 638.22 420.31 642.69 C 429.22 647.17 438.86 650.37 448.93 653.07 C 459 655.77 470.08 657.6 481 659 C 491.92 660.4 507.04 660.27 518 659 C 528.95 657.73 540.3 656.35 550.33 653.33 C 560.36 650.31 569.76 647.39 578.77 642.77 C 587.78 638.15 595.13 634.68 603 629 Z" style="fill: url(&quot;#gradient-1&quot;);"></path>
  </g>
  <g fill="#24669F" fill-opacity="1.00" stroke="None">
    <path d="M 218 571 C 219.9 581.61 222.39 593.96 226.22 603.78 C 230.06 613.59 234.21 622.94 239.08 631.92 C 243.96 640.89 249.14 648.13 254.7 656.3 C 260.25 664.48 266.19 671.96 272.75 679.25 C 279.31 686.54 285 693.02 292.25 699.75 C 299.5 706.49 306.52 712.72 314.25 718.75 C 321.97 724.78 329.02 730.22 337.25 735.75 C 345.49 741.27 353.94 746.23 362.77 751.23 C 371.6 756.23 380.18 759.95 389.78 764.22 C 399.37 768.5 409.46 771.81 419.93 775.07 C 430.39 778.34 441.42 781.32 452.78 783.22 C 464.14 785.12 475.88 787.07 488 788 C 500.12 788.93 514.9 788.76 527 788 C 539.1 787.24 551.7 786.15 562.98 783.98 C 574.25 781.8 585.56 779.14 595.98 775.98 C 606.39 772.81 616.37 770.08 625.78 765.78 C 635.18 761.47 645.27 757.88 653.77 752.77 C 662.27 747.66 671.34 743.39 678.75 737.75 C 686.17 732.12 694.827 725.913 702.25 720.25 C 709.673 714.587 718.827 707.711 723 701 C 709.88 687.04 696.671 671.768 682.671 658.598 C 676.131 666.578 667.94 673.71 659.75 679.75 C 651.55 685.78 643.51 690.48 634.23 695.23 C 624.94 699.98 616.01 704.14 605.68 707.68 C 595.35 711.22 585.09 714.55 573.67 716.67 C 562.25 718.79 548.23 720.27 536 721 C 523.77 721.73 508.69 720.26 497 719 C 485.32 717.74 473.87 714.69 463.02 711.98 C 452.18 709.26 442 705.82 432.02 701.98 C 422.05 698.13 412.12 694 403.23 688.77 C 394.34 683.54 386.79 678.21 379.08 671.92 C 371.38 665.63 364.23 659.93 357.77 652.23 C 351.31 644.53 346.12 636.74 340.25 628.75 C 334.38 620.76 328.62 612.15 322.75 604.25 C 316.89 596.34 310.26 589.89 303.25 582.75 C 296.23 575.61 287.42 570.72 279.23 565.77 C 271.04 560.82 254.93 556.42 246 558 C 237.07 559.58 219.62 560.63 218 571 Z" style="fill: url(&quot;#gradient-0&quot;);"></path>
  </g>
  <g fill="#A0BBD0" fill-opacity="1.00" stroke="None">
    <path d=" M 546.00 640.00 C 540.00 640.00 534.00 640.00 528.00 640.00 C 533.60 640.54 540.33 640.55 546.00 640.00 Z"></path>
  </g>
  <g fill="#24669F" fill-opacity="1.00" stroke="None" transform="matrix(1, 0, 0, 1, -1.124143, 0.380771)">
    <path d="M 218.642 568.752 C 220.019 579.624 222.891 593.083 226.721 602.903 C 230.549 612.718 235.416 622.94 240.286 631.92 C 241.738 634.588 252.786 620.52 264.626 616.477 C 267.684 615.433 270.948 614.318 274.064 614.03 C 280.064 613.478 285.22 614.495 285.22 614.495 C 301.184 616.383 313.983 623.627 322.912 629.444 C 329.137 633.498 333.632 636.674 335.23 637.821 C 339.44 640.843 340.153 641.192 344.655 644.515 C 346.449 645.839 349.078 647.939 351.759 649.598 C 356.826 652.734 362.351 655.641 364.683 658.214 C 365.972 659.636 359.621 652.999 352.924 644.442 C 347.913 638.038 343.1 630.559 339.009 624.578 C 332.273 614.731 326.3 606.835 323.796 603.465 C 317.936 595.555 310.522 588.32 303.512 581.18 C 296.492 574.04 287.42 569.412 279.23 564.462 C 271.04 559.512 258.726 556.42 246.633 556.735 C 234.54 557.05 220.262 558.382 218.642 568.752 Z" style="fill: rgb(18, 57, 93);"></path>
  </g>
</svg></svg></g></g></svg>